<svg xmlns="http://www.w3.org/2000/svg" width="23.484" height="25.101" viewBox="0 -0.055 23.484 25.101"><g data-name="Art"><path d="M22.574 20.886H.91a.91.91 0 0 1-.91-.91V6.512a.91.91 0 0 1 .91-.91h13.805a.91.91 0 0 1 0 1.82H1.82V19.07h19.844V7.422H18.24a.91.91 0 0 1 0-1.82h4.334a.91.91 0 0 1 .91.91V19.98a.907.907 0 0 1-.91.906Z" fill="#009000" fill-rule="evenodd" data-name="Vector"/><path d="M15.354 25.047H8.13a.907.907 0 0 1-.851-1.232l1.58-4.157a.909.909 0 0 1 .851-.588h4.063c.377 0 .718.235.851.588l1.58 4.157a.914.914 0 0 1-.101.84.912.912 0 0 1-.75.392Zm-5.906-1.82h4.584l-.89-2.341h-2.808l-.886 2.34Z" fill="#009000" fill-rule="evenodd" data-name="Vector"/><path d="M18.625 25.047H4.859a.91.91 0 0 1 0-1.82h13.766a.91.91 0 0 1 0 1.82Zm-5.13-13.84c-.47 0-.937-.177-1.294-.526l-.016-.016a1.855 1.855 0 0 1-.094-2.514l6.047-7.02c.628-.717 1.483-1.149 2.35-1.184.686-.023 1.31.208 1.76.659.451.45.687 1.078.66 1.76-.032.868-.467 1.722-1.19 2.346l-7.02 6.047a1.807 1.807 0 0 1-1.203.448Zm-.024-1.824c.004 0 .004 0 0 0 .016.012.032.016.044.004l7.02-6.048c.329-.286.545-.682.556-1.035.004-.122-.015-.294-.129-.408-.114-.114-.282-.137-.408-.13-.353.013-.749.228-1.035.558l-6.048 7.02a.036.036 0 0 0 0 .039Zm-6.584 7.33a.91.91 0 0 1-.643-1.553c.34-.341 1.102-1.66 1.176-2.377.07-.694.44-1.33 1-1.745a2.386 2.386 0 0 1 1.87-.42c.448.09.852.306 1.162.616.996.996.85 2.757-.322 3.93-.976.976-3.584 1.45-4.098 1.533a.588.588 0 0 1-.145.016Zm2.937-4.322a.569.569 0 0 0-.33.114.673.673 0 0 0-.266.466c-.043.432-.2.93-.412 1.416.487-.168.87-.345 1.032-.506.478-.478.564-1.114.321-1.357a.464.464 0 0 0-.239-.121.487.487 0 0 0-.106-.012Z" fill="#009000" fill-rule="evenodd" data-name="Vector"/></g></svg>