<svg xmlns="http://www.w3.org/2000/svg" width="93.111" height="92.089" viewBox="104.889 2540.911 93.111 92.089"><g data-name="investment"><g data-name="Group 70"><path d="M143.698 2568.084a6.045 6.045 0 0 1-6.04-6.038 6.045 6.045 0 0 1 6.04-6.039 6.045 6.045 0 0 1 6.038 6.039 6.045 6.045 0 0 1-6.038 6.038Z" fill="#00a400" fill-rule="evenodd" data-name="Path 35"/><path d="M160.304 2562.046a6.045 6.045 0 0 1-6.04-6.039 6.045 6.045 0 0 1 6.04-6.038 6.045 6.045 0 0 1 6.038 6.038 6.045 6.045 0 0 1-6.038 6.039Z" fill="#00a400" fill-rule="evenodd" data-name="Path 36"/><path d="M139.168 2546.95h3.02v7.548h-3.02v-7.549z" fill="#00a400" fill-rule="evenodd" data-name="Rectangle 48"/><path d="M145.207 2545.44h3.02v9.057h-3.02v-9.057z" fill="#00a400" fill-rule="evenodd" data-name="Rectangle 49"/><path d="M155.775 2542.42h3.02v6.039h-3.02v-6.039z" fill="#00a400" fill-rule="evenodd" data-name="Rectangle 50"/><path d="M161.813 2540.91h3.02v7.55h-3.02v-7.55z" fill="#00a400" fill-rule="evenodd" data-name="Rectangle 51"/><path d="m198 2569.227-1.795-7.181h-7.218v3.02h3.074l-9.404 12.93-7.368-5.896-7.494 7.494c-.283-2.227-2.168-3.961-4.472-3.961h-.418l6.039-10.568h-33.97l5.695 9.364-5.066 4.223h-29.647v3.02h30.74l8.864-7.388 9.337 2.668 3.177 3.969a2.45 2.45 0 0 1 .52 1.85 2.452 2.452 0 0 1-.967 1.663c-.974.732-2.36.63-3.222-.23l-3.046-3.046-8.604 6.883.885 1.105c-.285 3.82-2.01 7.537-4.962 10.572-.021.022-.04.047-.06.068h-.602l-3.019-1.51h-29.041v3.02h28.327l2.22 1.109a19.363 19.363 0 0 0-3.256 8.95l-6.156-6.154-22.202 22.203 2.134 2.134 20.068-20.068 6.175 6.175c1.123 9.35 9.133 16.954 18.678 17.338.275.011.549.017.82.017 5.095 0 9.893-1.925 13.584-5.471 3.89-3.735 6.032-8.762 6.032-14.155 0-4.88-1.79-9.471-5.027-13.075.308-.61.499-1.29.499-2.021a4.5 4.5 0 0 0-1.178-3.02 4.493 4.493 0 0 0 1.178-3.019 4.5 4.5 0 0 0-1.178-3.019 4.493 4.493 0 0 0 1.178-3.02c0-.697-.171-1.35-.455-1.94l8.115-8.113 7.727 6.182 11.105-15.27.727 2.902 2.929-.734Zm-33.167 10.935c0 .832-.678 1.51-1.51 1.51h-1.77a5.429 5.429 0 0 0-1.123-2.637l-.307-.383h3.2c.832 0 1.51.678 1.51 1.51Zm-19.98-9.22-1.838 1.532-2.67-4.39h23.396l-4.313 7.55h-1.72l-1.055-1.32-11.8-3.372Zm14.584 15.908a5.422 5.422 0 0 0 1.695-2.16h2.19c.833 0 1.51.679 1.51 1.51 0 .833-.677 1.51-1.51 1.51h-5.607a5.439 5.439 0 0 0 1.722-.86Zm5.396 5.39c0 .831-.678 1.51-1.51 1.51h-6.039c-.832 0-1.51-.679-1.51-1.51 0-.833.678-1.51 1.51-1.51h6.039c.832 0 1.51.677 1.51 1.51Zm0 6.038c0 .832-.678 1.51-1.51 1.51h-6.039c-.832 0-1.51-.678-1.51-1.51s.678-1.51 1.51-1.51h6.039c.832 0 1.51.678 1.51 1.51Zm-.576 27.074c-3.289 3.16-7.596 4.789-12.19 4.615-8.619-.347-15.76-7.654-15.915-16.288a16.468 16.468 0 0 1 4.689-11.855c3.602-3.703 5.641-8.315 5.838-13.056l4.455-3.564 1.135 1.135c.17.171.36.312.545.453.124.929.52 1.764 1.119 2.426a4.493 4.493 0 0 0-1.178 3.02 4.5 4.5 0 0 0 1.178 3.019 4.493 4.493 0 0 0-1.178 3.02 4.5 4.5 0 0 0 1.178 3.019h-2.688v3.019h-.755a5.29 5.29 0 0 0-5.283 5.284 5.29 5.29 0 0 0 5.283 5.283h4.53a2.267 2.267 0 0 1 2.264 2.265 2.269 2.269 0 0 1-2.264 2.266h-4.53a2.267 2.267 0 0 1-2.264-2.265v-.755h-3.02v.755a5.29 5.29 0 0 0 5.284 5.284h.755v3.02h3.02v-3.02h.755a5.29 5.29 0 0 0 5.283-5.284 5.29 5.29 0 0 0-5.283-5.283h-4.53a2.267 2.267 0 0 1-2.264-2.265 2.267 2.267 0 0 1 2.264-2.264h4.53a2.267 2.267 0 0 1 2.264 2.264v.755h3.02v-.755a5.29 5.29 0 0 0-5.284-5.283h-.755v-2.688a4.493 4.493 0 0 0 3.019 1.178h6.039c.664 0 1.292-.153 1.861-.41a16.446 16.446 0 0 1 4.177 10.977c0 4.562-1.813 8.817-5.104 11.978Z" fill="#00a400" fill-rule="evenodd" data-name="Path 37"/></g></g></svg>