<svg xmlns="http://www.w3.org/2000/svg" width="76" height="76" viewBox="700 5124.95 76 76"><g data-name="Icon"><path d="M700 5162.9a38 38 0 1 1 0 .1z" fill="#009100" fill-rule="evenodd" data-name="Oval"/><path d="M737.576 5185.548a35.477 35.477 0 0 1-3.37-.178 1.427 1.427 0 0 1-1.225-1.82c.66-2.25.703-4.53.134-6.678-2.005-7.487-10.96-11.824-20.217-9.346-.487.136-.966.292-1.441.463a1.425 1.425 0 0 1-1.873-1.009 18.488 18.488 0 0 1-.512-4.237v-.006c0-12.788 12.946-22.812 28.514-22.812 15.57 0 28.516 10.024 28.516 22.812 0 12.787-12.947 22.81-28.516 22.81h-.01Z" fill="#fff" fill-rule="evenodd" data-name="Shape"/></g></svg>