<svg xmlns="http://www.w3.org/2000/svg" width="76" height="76" viewBox="254 5125 76 76"><g data-name="Icon"><path d="M292 5125c20.987 0 38 17.013 38 38s-17.013 38-38 38-38-17.013-38-38 17.013-38 38-38Z" fill="#009100" fill-rule="evenodd" data-name="Oval"/><g data-name="Shape"><g data-name="path1998"><path d="m285.033 5168.06.064-1.098c.162-2.81 1.92-5.171 4.36-6.247a3.692 3.692 0 0 1-.819-2.297c0-2.051 1.69-3.737 3.742-3.737 2.053 0 3.744 1.686 3.744 3.737a3.7 3.7 0 0 1-.819 2.301c2.438 1.076 4.197 3.43 4.358 6.243l.064 1.098h-14.694Z" fill="#fff" fill-rule="evenodd"/><path d="m285.033 5168.06.064-1.098c.162-2.81 1.92-5.171 4.36-6.247a3.692 3.692 0 0 1-.819-2.297c0-2.051 1.69-3.737 3.742-3.737 2.053 0 3.744 1.686 3.744 3.737a3.7 3.7 0 0 1-.819 2.301c2.438 1.076 4.197 3.43 4.358 6.243l.064 1.098h-14.694Z" stroke-linejoin="round" stroke-linecap="round" stroke-width=".8" stroke="#fff" fill="transparent"/></g><g data-name="path1343"><path d="M288.995 5181.262c0-1.493.995-2.756 2.348-3.198v-3.423a12.365 12.365 0 0 1-6.679-2.645l-3.97 3.97a4.85 4.85 0 0 1 .718 2.514c0 2.7-2.213 4.91-4.914 4.91-2.699 0-4.908-2.21-4.908-4.91s2.21-4.912 4.908-4.912c1.032 0 1.99.328 2.783.878l3.876-3.876a12.376 12.376 0 0 1-3.114-6.797h-2.989c-.443 1.354-1.707 2.35-3.2 2.35a3.403 3.403 0 0 1-3.386-3.386 3.403 3.403 0 0 1 3.386-3.386c1.493 0 2.757.995 3.2 2.349h2.913a12.362 12.362 0 0 1 2.762-7.287l-3.61-3.608a4.87 4.87 0 0 1-2.782.879c-2.7 0-4.91-2.214-4.91-4.914 0-2.7 2.21-4.908 4.91-4.908 2.699 0 4.914 2.209 4.914 4.908a4.85 4.85 0 0 1-.718 2.516l3.637 3.636a12.38 12.38 0 0 1 7.173-3.062v-2.45c-1.353-.443-2.348-1.706-2.348-3.2a3.403 3.403 0 0 1 3.386-3.386 3.403 3.403 0 0 1 3.386 3.386c0 1.494-.996 2.757-2.35 3.2v2.45a12.377 12.377 0 0 1 7.06 2.96l3.536-3.534a4.85 4.85 0 0 1-.717-2.516c0-2.7 2.213-4.908 4.914-4.908 2.699 0 4.908 2.209 4.908 4.908 0 2.7-2.21 4.914-4.908 4.914a4.866 4.866 0 0 1-2.783-.88l-3.487 3.488a12.379 12.379 0 0 1 2.855 7.408h2.912c.443-1.354 1.706-2.349 3.2-2.349a3.403 3.403 0 0 1 3.385 3.386 3.403 3.403 0 0 1-3.386 3.386c-1.493 0-2.755-.996-3.199-2.35h-2.989a12.383 12.383 0 0 1-3.14 6.826l3.85 3.847a4.856 4.856 0 0 1 2.782-.878c2.699 0 4.908 2.213 4.908 4.912 0 2.7-2.21 4.91-4.908 4.91-2.7 0-4.914-2.21-4.914-4.91 0-.92.271-1.775.717-2.514l-3.95-3.95a12.356 12.356 0 0 1-6.646 2.625v3.423c1.354.442 2.35 1.705 2.35 3.198a3.403 3.403 0 0 1-3.386 3.387 3.403 3.403 0 0 1-3.386-3.387Z" fill="#fff" fill-rule="evenodd"/><path d="M288.995 5181.262c0-1.493.995-2.756 2.348-3.198v-3.423a12.365 12.365 0 0 1-6.679-2.645l-3.97 3.97a4.85 4.85 0 0 1 .718 2.514c0 2.7-2.213 4.91-4.914 4.91-2.699 0-4.908-2.21-4.908-4.91s2.21-4.912 4.908-4.912c1.032 0 1.99.328 2.783.878l3.876-3.876a12.376 12.376 0 0 1-3.114-6.797h-2.989c-.443 1.354-1.707 2.35-3.2 2.35a3.403 3.403 0 0 1-3.386-3.386 3.403 3.403 0 0 1 3.386-3.386c1.493 0 2.757.995 3.2 2.349h2.913a12.362 12.362 0 0 1 2.762-7.287l-3.61-3.608a4.87 4.87 0 0 1-2.782.879c-2.7 0-4.91-2.214-4.91-4.914 0-2.7 2.21-4.908 4.91-4.908 2.699 0 4.914 2.209 4.914 4.908a4.85 4.85 0 0 1-.718 2.516l3.637 3.636a12.38 12.38 0 0 1 7.173-3.062v-2.45c-1.353-.443-2.348-1.706-2.348-3.2a3.403 3.403 0 0 1 3.386-3.386 3.403 3.403 0 0 1 3.386 3.386c0 1.494-.996 2.757-2.35 3.2v2.45a12.377 12.377 0 0 1 7.06 2.96l3.536-3.534a4.85 4.85 0 0 1-.717-2.516c0-2.7 2.213-4.908 4.914-4.908 2.699 0 4.908 2.209 4.908 4.908 0 2.7-2.21 4.914-4.908 4.914a4.866 4.866 0 0 1-2.783-.88l-3.487 3.488a12.379 12.379 0 0 1 2.855 7.408h2.912c.443-1.354 1.706-2.349 3.2-2.349a3.403 3.403 0 0 1 3.385 3.386 3.403 3.403 0 0 1-3.386 3.386c-1.493 0-2.755-.996-3.199-2.35h-2.989a12.383 12.383 0 0 1-3.14 6.826l3.85 3.847a4.856 4.856 0 0 1 2.782-.878c2.699 0 4.908 2.213 4.908 4.912 0 2.7-2.21 4.91-4.908 4.91-2.7 0-4.914-2.21-4.914-4.91 0-.92.271-1.775.717-2.514l-3.95-3.95a12.356 12.356 0 0 1-6.646 2.625v3.423c1.354.442 2.35 1.705 2.35 3.198a3.403 3.403 0 0 1-3.386 3.387 3.403 3.403 0 0 1-3.386-3.387Z" stroke-linejoin="round" stroke-linecap="round" stroke-width=".8" stroke="#fff" fill="transparent"/></g></g></g></svg>