<svg xmlns="http://www.w3.org/2000/svg" width="12.55" height="20.916" viewBox="244 650 12.55 20.916"><g data-name="Dollar"><path d="M252.367 659.412h-1.046v-4.183h2.091a1.046 1.046 0 0 1 1.046 1.046 1.046 1.046 0 1 0 2.092 0 3.137 3.137 0 0 0-3.138-3.138h-2.091v-2.091a1.046 1.046 0 1 0-2.092 0v2.091h-1.046a4.183 4.183 0 1 0 0 8.367h1.046v4.183h-2.092a1.046 1.046 0 0 1-1.045-1.046 1.046 1.046 0 0 0-2.092 0 3.137 3.137 0 0 0 3.137 3.138h2.092v2.091a1.046 1.046 0 1 0 2.092 0v-2.091h1.046a4.183 4.183 0 0 0 0-8.367Zm-3.138 0h-1.046a2.092 2.092 0 0 1 0-4.183h1.046v4.183Zm3.138 6.275h-1.046v-4.183h1.046a2.092 2.092 0 0 1 0 4.183Z" fill="#009000" fill-rule="evenodd" data-name="Vector"/></g></svg>