<svg xmlns="http://www.w3.org/2000/svg" width="76" height="76" viewBox="1590 5124.95 76 76"><g data-name="Icon"><path d="M1590 5162.9a38 38 0 1 1 0 .1z" fill="#009100" fill-rule="evenodd" data-name="Oval"/><g data-name="Shape"><path d="M1609.357 5182.507c-.825 0-1.494-.67-1.494-1.494v-12.15c0-.826.67-1.495 1.494-1.495h8.95c.826 0 1.495.67 1.495 1.495v12.15c0 .825-.67 1.494-1.495 1.494h-8.95ZM1623.408 5182.506a1.494 1.494 0 0 1-1.495-1.493v-17.418c0-.825.67-1.495 1.495-1.495h8.95c.825 0 1.494.67 1.494 1.495v17.418c0 .825-.67 1.493-1.494 1.493h-8.95ZM1637.458 5182.506a1.494 1.494 0 0 1-1.495-1.493v-23.43c0-.826.67-1.495 1.495-1.495h8.948c.826 0 1.495.669 1.495 1.494v23.43c0 .826-.67 1.494-1.495 1.494h-8.948Z" fill="#fff" fill-rule="evenodd" data-name="Shape"/><path d="M1637.636 5153.018a1.494 1.494 0 0 1-1.33-2.173l1.68-3.297-3.296-1.678a1.494 1.494 0 1 1 1.357-2.662l4.627 2.357a1.494 1.494 0 0 1 .653 2.009l-2.358 4.627c-.255.502-.77.817-1.333.817Z" fill="#fff" fill-rule="evenodd" data-name="Path"/><path d="M1612.318 5157.383a1.494 1.494 0 0 1-.461-2.915l27.204-8.84a1.494 1.494 0 0 1 .923 2.842l-27.204 8.839c-.15.049-.305.074-.462.074Z" fill="#fff" fill-rule="evenodd" data-name="Path"/></g></g></svg>