<svg xmlns="http://www.w3.org/2000/svg" width="22.088" height="20.11" viewBox="1.506 2.491 22.088 20.11"><g data-name="Marketing"><g data-name="Group"><path d="M20.582 3.496v4.142a4.018 4.018 0 0 1 0 7.779v3.139c0 .69-.682 1.175-1.335.948l-8.543-2.976-4.584-.547 1.185 4.612h1.464l-.34-1.815a1.004 1.004 0 0 1 1.973-.37l.563 3.004a1.004 1.004 0 0 1-.987 1.189H7.305c-.917 0-1.717-.62-1.945-1.509L3.98 15.72a3.012 3.012 0 0 1-2.474-2.963v-3.46a3.012 3.012 0 0 1 2.66-2.991l6.538-.77 8.542-2.988a1.004 1.004 0 0 1 1.336.948ZM18.574 4.91l-7.311 2.557-.215.05-1.51.177v6.671l1.512.18.211.05 7.313 2.547V4.91ZM7.53 7.93 4.4 8.3c-.505.06-.886.488-.886.997v3.46c0 .508.38.937.885.997l3.13.373V7.93ZM20.582 9.79v3.478a2.007 2.007 0 0 0 0-3.478Z" fill="#009000" fill-rule="evenodd" data-name="Vector"/></g></g></svg>