<svg xmlns="http://www.w3.org/2000/svg" width="76" height="76" viewBox="1144 5124.95 76 76"><g data-name="Icon"><path d="M1144 5162.9a38 38 0 1 1 0 .1z" fill="#009100" fill-rule="evenodd" data-name="Oval"/><g data-name="Shape"><path d="M1176.5 5188c-5.8 0-10.5-4.833-10.5-10.792v-15.416c0-5.96 4.7-10.792 10.5-10.792h6c5.8 0 10.5 4.831 10.5 10.792v15.416c0 5.96-4.7 10.792-10.5 10.792h-6Z" fill="#fff" fill-rule="evenodd" data-name="Shape"/><path d="M1192.846 5144v-3c0-1.657-1.377-3-3.077-3h-7.692c-1.7 0-3.077 1.343-3.077 3v6h3.077v-6h7.692v3c0 1.657 1.378 3 3.077 3H1199v-3h-6.154Z" fill="#fff" fill-rule="evenodd" data-name="Path 2"/></g></g></svg>